<svg width="126" height="126" viewBox="0 0 126 126" fill="none" xmlns="http://www.w3.org/2000/svg">
<rect width="126" height="126" rx="32" fill="white"/>
<g clip-path="url(#clip0)">
<path d="M90.6761 78.903C87.708 85.2475 82.7994 90.4387 76.2031 93.458C72.1951 95.2934 67.5625 96.3254 62.3636 96.3254C48.79 96.3254 39.075 89.2869 34.2371 79.2914C29.1084 81.1643 20.7314 86.0875 20.5123 91.2045C20.3455 95.0987 29.9881 89.311 31.6125 92.4246C33.2369 95.5383 24.1134 101.845 26.6855 104.552C29.2576 107.26 39.2588 98.6453 41.4621 99.993C43.4156 101.188 41.4277 110.969 44.7912 111.511C48.1547 112.052 52.5377 102.933 55.1099 103.34C57.6822 103.746 59.4342 113 63 113C66.5658 113 68.3177 103.746 70.8898 103.34C73.4619 102.934 77.8451 112.052 81.2086 111.511C84.572 110.969 82.5842 101.188 84.5377 99.993C86.741 98.6453 96.7422 107.26 99.3142 104.552C101.886 101.845 92.7629 95.5383 94.3873 92.4246C96.0117 89.311 105.654 95.0987 105.487 91.2045C105.251 85.6793 94.9002 80.3799 90.6761 78.903Z" fill="#FFAA5C"/>
<path d="M93.9744 63.5766C93.9744 67.5986 93.3599 71.5043 92.1691 75.1328C89.5306 83.177 84.0646 89.8598 76.2033 93.4582C72.1953 95.2936 67.5627 96.3256 62.3638 96.3256C42.3779 96.3256 30.7533 81.0686 30.7533 63.5766C30.7533 59.7994 31.1408 56.0906 31.8418 52.5022C32.9783 46.6668 34.9422 41.1547 37.4 36.2029C44.2332 22.4377 54.9019 13 62.3638 13C69.6611 13 80.0265 22.0262 86.8699 35.3012C89.3961 40.1947 91.4402 45.6646 92.6752 51.4719C93.5084 55.3775 93.9744 59.4379 93.9744 63.5766Z" fill="#FFECA1"/>
<path d="M44.7914 44.8415C44.7914 49.6669 40.8778 53.5805 36.0524 53.5805C34.5262 53.5805 33.0905 53.1889 31.8414 52.5022C32.978 46.6669 34.9418 41.1548 37.3996 36.203C41.5846 36.8516 44.7914 40.4719 44.7914 44.8415Z" fill="#E8834D"/>
<path d="M77.9652 97.6294C85.7955 94.1732 91.5156 88.0984 94.7939 80.699C93.2048 79.8947 91.7445 79.2765 90.6763 78.9031C87.7082 85.2476 82.7996 90.4388 76.2033 93.4582C72.1953 95.2935 67.5627 96.3255 62.3638 96.3255C48.7902 96.3255 39.0751 89.2871 34.2373 79.2915C33.0029 79.7423 31.5804 80.3701 30.1287 81.1345C35.3845 92.5783 46.5527 100.747 62.3638 100.747C68.2244 100.747 73.4468 99.6246 77.9652 97.6294Z" fill="#FF9838"/>
<path d="M92.6752 51.4721C91.4402 45.6648 89.3961 40.1949 86.8699 35.3014C80.0266 22.0262 69.6609 13 62.3639 13C61.6896 13 60.9889 13.0781 60.2676 13.2285C67.3537 14.707 76.4643 23.2545 82.6744 35.3014C85.2006 40.1949 87.2447 45.6648 88.4797 51.4721C89.3131 55.3777 89.7789 59.4379 89.7789 63.5766C89.7789 67.5986 89.1645 71.5043 87.9736 75.1328C85.335 83.177 79.8691 89.8598 72.0078 93.4582C68.5482 95.0424 64.6221 96.0264 60.2693 96.2666C60.9572 96.3045 61.6545 96.3258 62.3637 96.3258C67.5625 96.3258 72.1949 95.2938 76.2031 93.4584C84.0647 89.86 89.5305 83.1774 92.1689 75.133C93.3598 71.5045 93.9742 67.5988 93.9742 63.5768C93.9744 59.4379 93.5084 55.3775 92.6752 51.4721Z" fill="#FFDF85"/>
<path d="M92.1691 75.1328C89.5307 83.177 84.0647 89.8598 76.2033 93.4582C73.7033 91.2332 72.1289 87.9903 72.1289 84.3799C72.1289 77.667 77.5707 72.2252 84.2836 72.2252C87.2936 72.225 90.0486 73.3196 92.1691 75.1328Z" fill="#E8834D"/>
<path d="M88.5951 73.0131C88.4092 73.7289 88.2023 74.4361 87.9736 75.1328C85.6607 82.1842 81.175 88.1888 74.808 91.9877C75.2324 92.5152 75.6976 93.0084 76.2031 93.4582C84.0646 89.8597 89.5304 83.1771 92.1689 75.1328C91.1183 74.2342 89.9113 73.5129 88.5951 73.0131Z" fill="#D66E41"/>
<path d="M92.6751 51.472C92.2253 51.5424 91.7634 51.5804 91.2915 51.5804C86.4642 51.5804 82.5525 47.6668 82.5525 42.8414C82.5525 39.6285 84.2855 36.8193 86.8699 35.3011C89.396 40.1949 91.4402 45.6648 92.6751 51.472Z" fill="#E8834D"/>
<path d="M86.8699 35.3011C85.7178 35.9779 84.7365 36.9125 84.001 38.024C85.8641 42.0804 87.3826 46.475 88.3941 51.0863C89.301 51.4051 90.2756 51.5803 91.2916 51.5803C91.7635 51.5803 92.2254 51.5422 92.6752 51.4719C91.4402 45.6648 89.3961 40.1949 86.8699 35.3011Z" fill="#D66E41"/>
<path d="M48.1385 80.8978C51.4672 80.8978 54.1656 78.1994 54.1656 74.8707C54.1656 71.542 51.4672 68.8435 48.1385 68.8435C44.8098 68.8435 42.1113 71.542 42.1113 74.8707C42.1113 78.1994 44.8098 80.8978 48.1385 80.8978Z" fill="#E8834D"/>
<path d="M62.9999 38.3971C66.3286 38.3971 69.0271 35.6986 69.0271 32.3699C69.0271 29.0412 66.3286 26.3428 62.9999 26.3428C59.6712 26.3428 56.9728 29.0412 56.9728 32.3699C56.9728 35.6986 59.6712 38.3971 62.9999 38.3971Z" fill="#E8834D"/>
<path d="M68.39 67.2359C73.2168 67.2359 77.1297 63.323 77.1297 58.4962C77.1297 53.6695 73.2168 49.7566 68.39 49.7566C63.5633 49.7566 59.6504 53.6695 59.6504 58.4962C59.6504 63.323 63.5633 67.2359 68.39 67.2359Z" fill="#E8834D"/>
</g>
<defs>
<clipPath id="clip0">
<rect width="100" height="100" fill="white" transform="translate(13 13)"/>
</clipPath>
</defs>
</svg>
