<svg width="35" height="35" viewBox="0 0 35 35" fill="none" xmlns="http://www.w3.org/2000/svg">
<rect width="35" height="35" rx="5" fill="black"/>
<path d="M11.6991 21.4553H11.7003C11.7014 21.4553 11.7024 21.4551 11.7034 21.4551H26.0449C26.398 21.4551 26.7084 21.2209 26.8055 20.8814L29.9695 9.80717C30.0377 9.56842 29.9899 9.31175 29.8406 9.11359C29.691 8.91542 29.4572 8.79883 29.209 8.79883H9.87483L9.30938 6.25419C9.22884 5.89226 8.9079 5.63477 8.53711 5.63477H3.79102C3.3541 5.63477 3 5.98887 3 6.42578C3 6.86269 3.3541 7.2168 3.79102 7.2168H7.90265C8.00276 7.66772 10.6086 19.3941 10.7585 20.0687C9.91789 20.4342 9.32813 21.2724 9.32813 22.2461C9.32813 23.5546 10.3927 24.6191 11.7012 24.6191H26.0449C26.4818 24.6191 26.8359 24.265 26.8359 23.8281C26.8359 23.3912 26.4818 23.0371 26.0449 23.0371H11.7012C11.2651 23.0371 10.9102 22.6822 10.9102 22.2461C10.9102 21.8106 11.2638 21.4563 11.6991 21.4553V21.4553ZM28.1603 10.3809L25.4482 19.873H12.3356L10.2263 10.3809H28.1603Z" fill="white"/>
<path d="M10.9102 26.9922C10.9102 28.3007 11.9747 29.3652 13.2832 29.3652C14.5917 29.3652 15.6562 28.3007 15.6562 26.9922C15.6562 25.6837 14.5917 24.6191 13.2832 24.6191C11.9747 24.6191 10.9102 25.6837 10.9102 26.9922ZM13.2832 26.2012C13.7193 26.2012 14.0742 26.5561 14.0742 26.9922C14.0742 27.4283 13.7193 27.7832 13.2832 27.7832C12.8471 27.7832 12.4922 27.4283 12.4922 26.9922C12.4922 26.5561 12.8471 26.2012 13.2832 26.2012Z" fill="white"/>
<path d="M22.0898 26.9922C22.0898 28.3007 23.1544 29.3652 24.4629 29.3652C25.7714 29.3652 26.8359 28.3007 26.8359 26.9922C26.8359 25.6837 25.7714 24.6191 24.4629 24.6191C23.1544 24.6191 22.0898 25.6837 22.0898 26.9922ZM24.4629 26.2012C24.899 26.2012 25.2539 26.5561 25.2539 26.9922C25.2539 27.4283 24.899 27.7832 24.4629 27.7832C24.0268 27.7832 23.6719 27.4283 23.6719 26.9922C23.6719 26.5561 24.0268 26.2012 24.4629 26.2012Z" fill="white"/>
</svg>
