<svg width="75" height="75" viewBox="0 0 75 75" fill="none" xmlns="http://www.w3.org/2000/svg">
<circle cx="37.5" cy="37.5" r="37.5" fill="black"/>
<g clip-path="url(#clip0)">
<path d="M36.6437 36.0851C39.9526 36.0851 42.8178 34.8984 45.1589 32.5569C47.5 30.2159 48.6867 27.3514 48.6867 24.0422C48.6867 20.7341 47.5 17.8693 45.1585 15.5274C42.817 13.1867 39.9522 12 36.6437 12C33.3345 12 30.47 13.1867 28.1289 15.5278C25.7878 17.8689 24.6007 20.7337 24.6007 24.0422C24.6007 27.3514 25.7878 30.2162 28.1293 32.5573C30.4708 34.898 33.3356 36.0851 36.6437 36.0851Z" fill="white"/>
<path d="M57.7157 50.4474C57.6482 49.4731 57.5116 48.4103 57.3106 47.2881C57.1077 46.1574 56.8463 45.0885 56.5335 44.1116C56.2104 43.1018 55.771 42.1047 55.2278 41.1491C54.664 40.1573 54.0017 39.2936 53.2586 38.583C52.4816 37.8395 51.5302 37.2417 50.43 36.8057C49.3337 36.372 48.1187 36.1522 46.819 36.1522C46.3086 36.1522 45.815 36.3617 44.8617 36.9823C44.275 37.3649 43.5887 37.8074 42.8228 38.2969C42.1678 38.7142 41.2805 39.1052 40.1845 39.4592C39.1152 39.8052 38.0296 39.9807 36.958 39.9807C35.8865 39.9807 34.8012 39.8052 33.7308 39.4592C32.636 39.1056 31.7487 38.7146 31.0945 38.2972C30.3357 37.8124 29.6491 37.3699 29.0536 36.9819C28.1015 36.3613 27.6075 36.1519 27.097 36.1519C25.797 36.1519 24.5824 36.372 23.4864 36.8061C22.387 37.2413 21.4353 37.8391 20.6575 38.5833C19.9147 39.2944 19.2521 40.1577 18.6891 41.1491C18.1462 42.1047 17.7068 43.1014 17.3833 44.112C17.0709 45.0889 16.8096 46.1574 16.6066 47.2881C16.4056 48.4088 16.269 49.472 16.2015 50.4485C16.1351 51.4052 16.1016 52.3982 16.1016 53.4011C16.1016 56.0111 16.9313 58.124 18.5674 59.6823C20.1833 61.22 22.3214 62.0001 24.9215 62.0001H48.9968C51.5969 62.0001 53.7343 61.2204 55.3506 59.6823C56.9871 58.1252 57.8168 56.0119 57.8168 53.4007C57.8164 52.3932 57.7825 51.3995 57.7157 50.4474Z" fill="white"/>
</g>
<defs>
<clipPath id="clip0">
<rect width="50" height="50" fill="white" transform="translate(12 12)"/>
</clipPath>
</defs>
</svg>
